<?xml version="1.0" encoding="UTF-8" standalone="no"?>
<!-- Created with Inkscape (http://www.inkscape.org/) -->

<svg
   width="193.55855mm"
   height="138.82565mm"
   viewBox="0 0 193.55855 138.82565"
   version="1.1"
   id="svg1"
   xml:space="preserve"
   sodipodi:docname="Logo PI - SVG - SkillBrigde.svg"
   inkscape:version="1.4.3 (1:1.4.3+202512261035+0d15f75042)"
   xmlns:inkscape="http://www.inkscape.org/namespaces/inkscape"
   xmlns:sodipodi="http://sodipodi.sourceforge.net/DTD/sodipodi-0.dtd"
   xmlns="http://www.w3.org/2000/svg"
   xmlns:svg="http://www.w3.org/2000/svg"><sodipodi:namedview
     id="namedview1"
     pagecolor="#505050"
     bordercolor="#ffffff"
     borderopacity="1"
     inkscape:showpageshadow="0"
     inkscape:pageopacity="0"
     inkscape:pagecheckerboard="1"
     inkscape:deskcolor="#505050"
     inkscape:document-units="mm"
     inkscape:zoom="0.56123737"
     inkscape:cx="508.69741"
     inkscape:cy="559.47807"
     inkscape:window-width="1600"
     inkscape:window-height="832"
     inkscape:window-x="0"
     inkscape:window-y="0"
     inkscape:window-maximized="1"
     inkscape:current-layer="layer1"><inkscape:page
       x="0"
       y="0"
       width="193.55855"
       height="138.82565"
       id="page2"
       margin="0"
       bleed="0" /></sodipodi:namedview><defs
     id="defs1"><clipPath
       id="2bd093de35"><rect
         x="0"
         width="128"
         y="0"
         height="28"
         id="rect4" /></clipPath></defs><g
     inkscape:label="Camada 1"
     inkscape:groupmode="layer"
     id="layer1"
     inkscape:export-filename="C:\Users\guigo\Documents\FATEC\PI\Site\assets\logos\SkillBridge - Logo.svg"
     inkscape:export-xdpi="96"
     inkscape:export-ydpi="96"
     transform="translate(-10.5386,-88.056687)"><path
       fill="#918ff0"
       d="m 168.75695,103.20005 c 0,0.90693 -0.0913,1.80168 -0.2739,2.68426 -0.17652,0.88867 -0.44433,1.74691 -0.79128,2.5808 -0.35303,0.83388 -0.7852,1.62517 -1.29648,2.37993 -0.50521,0.74867 -1.08954,1.44256 -1.73473,2.08167 -0.65129,0.63911 -1.35736,1.21127 -2.11821,1.71038 -0.76692,0.50521 -1.57038,0.93128 -2.42252,1.27823 -0.84606,0.34694 -1.72256,0.60868 -2.62341,0.78519 -0.90083,0.17652 -1.80776,0.26782 -2.72687,0.26782 -0.9191,0 -1.83212,-0.0852 -2.73296,-0.25564 -0.90085,-0.17652 -1.77734,-0.43825 -2.62948,-0.77911 -0.84607,-0.34086 -1.6556,-0.76694 -2.42254,-1.26605 -0.76694,-0.49912 -1.473,-1.06519 -2.12428,-1.7043 -0.65129,-0.63302 -1.23562,-1.32691 -1.74692,-2.07559 -0.51128,-0.74867 -0.94953,-1.53995 -1.30256,-2.37384 -0.35304,-0.83389 -0.62085,-1.69212 -0.80346,-2.5747 -0.1826,-0.88867 -0.2739,-1.78343 -0.27999,-2.68427 -0.006,-0.90084 0.0852,-1.7956 0.25565,-2.68427 0.17652,-0.882582 0.43825,-1.746903 0.78519,-2.580791 0.35303,-0.833889 0.7791,-1.631255 1.28431,-2.386015 0.5113,-0.748674 1.08344,-1.448653 1.73473,-2.087764 0.64519,-0.645199 1.35126,-1.217355 2.11211,-1.722557 0.76084,-0.505201 1.56431,-0.931276 2.41037,-1.278222 0.84605,-0.353034 1.72254,-0.620852 2.62339,-0.797368 0.90084,-0.182602 1.80778,-0.273904 2.72688,-0.279991 0.9191,-0.0061 1.83211,0.07913 2.73297,0.249558 0.90083,0.170429 1.77733,0.426073 2.62948,0.766932 0.85214,0.34086 1.66168,0.75476 2.42862,1.253877 0.76694,0.499114 1.47909,1.059097 2.13037,1.698208 0.65737,0.633025 1.2417,1.320831 1.75907,2.069505 0.5113,0.748672 0.94955,1.533865 1.30867,2.367755 0.35912,0.833887 0.62693,1.692122 0.81561,2.574703 0.18261,0.88258 0.28,1.77734 0.28609,2.67818"
       fill-opacity="0.00400002"
       fill-rule="nonzero"
       id="path9"
       style="stroke-width:1.55821" /><path
       stroke-linecap="round"
       fill="none"
       stroke-linejoin="round"
       d="m 75.976281,128.37497 c 0,0 1.406046,29.06435 -6.476329,51.18369 -3.986838,-18.02294 -10.931849,-53.21059 -53.734054,-44.56129 26.82442,-10.7675 47.470762,-13.99348 61.33035,-7.46846 14.297835,5.89199 21.328061,8.02236 40.160542,9.0632"
       stroke="#43545c"
       stroke-width="4.29359"
       stroke-opacity="0.925"
       stroke-miterlimit="4"
       id="path11"
       style="stroke:#ffffff;stroke-opacity:0.925" /><path
       stroke-linecap="round"
       fill="none"
       stroke-linejoin="round"
       d="m 136.94142,128.79495 c 0,0 -1.40604,29.07044 6.47024,51.18369 3.99293,-18.02293 10.93794,-53.21058 53.74015,-44.56127 -26.83051,-10.76751 -47.47076,-14.09089 -61.33035,-7.56587 -9.8058,2.15472 -10.43882,2.15472 -29.27131,3.19557"
       stroke="#ae0c0d"
       stroke-width="4.29359"
       stroke-opacity="1"
       stroke-miterlimit="4"
       id="path12"
       style="stroke:#ffffff;stroke-opacity:1" /><g
       transform="matrix(1.5582141,0,0,1.5582141,8.4617655,187.08188)"
       id="g47"
       inkscape:export-filename="C:\Users\guigo\Documents\FATEC\PI\Site\assets\logos\SkillBridge - sem icone.png"
       inkscape:export-xdpi="96"
       inkscape:export-ydpi="96"><g
         clip-path="url(#2bd093de35)"
         id="g46"><g
           fill="#ac0407"
           fill-opacity="1"
           id="g15"
           style="fill:#ffffff;fill-opacity:1"><g
             transform="translate(0.723455,21.104846)"
             id="g14"
             style="fill:#ffffff;fill-opacity:1"><g
               id="g13"
               style="fill:#ffffff;fill-opacity:1"><path
                 d="m 6.875,0.265625 c -2.5571699,0 -4.925037,-0.75698128 -6.265625,-1.78125 l 1.21875,-2.6875 c 1.2840682,0.9630501 3.2089498,1.609375 5.078125,1.609375 1.0454835,0 2.96875,-0.1981583 2.96875,-1.65625 0,-1.1535942 -1.490014,-1.5292028 -3.34375,-1.96875 -3.1377923,-0.7480826 -3.9538419,-1.1887736 -4.8125,-2.171875 -0.53125,-0.625 -0.796875,-1.445313 -0.796875,-2.46875 0,-0.894531 0.238281,-1.703125 0.71875,-2.421875 1.3782698,-2.050865 4.1499173,-2.375 5.765625,-2.375 1.7511432,0 3.852815,0.4265 5.34375,1.359375 l -1.09375,2.71875 c -1.429688,-0.8125 -2.851562,-1.21875 -4.265625,-1.21875 -1.1320902,0 -2.921875,0.241076 -2.921875,1.765625 0,0.801901 0.4371765,1.295067 3.328125,1.9375 3.160007,0.7348869 3.993928,1.2293386 4.8125,2.15625 0.53125,0.59375 0.796875,1.40625 0.796875,2.4375 0,0.875 -0.246094,1.679688 -0.734375,2.40625 C 11.245284,-0.01047243 8.3232589,0.265625 6.875,0.265625 Z"
                 id="path13"
                 sodipodi:nodetypes="sccssccscsccssccscs"
                 style="fill:#ffffff;fill-opacity:1" /></g></g></g><g
           fill="#ac0407"
           fill-opacity="1"
           id="g18"
           style="fill:#ffffff;fill-opacity:1"><g
             transform="translate(14.740133,21.104846)"
             id="g17"
             style="fill:#ffffff;fill-opacity:1"><g
               id="g16"
               style="fill:#ffffff;fill-opacity:1"><path
                 d="m 6.65625,-4.640625 -1.640625,1.625 V 0 h -3.4375 v -16.3125 h 3.4375 v 9.234375 l 5.015625,-4.75 h 4.078125 L 9.1875,-6.8125 14.546875,0 H 10.40625 Z m 0,0"
                 id="path15"
                 style="fill:#ffffff;fill-opacity:1" /></g></g></g><g
           fill="#ac0407"
           fill-opacity="1"
           id="g21"
           style="fill:#ffffff;fill-opacity:1"><g
             transform="translate(29.152237,21.104846)"
             id="g20"
             style="fill:#ffffff;fill-opacity:1"><g
               id="g19"
               style="fill:#ffffff;fill-opacity:1"><path
                 d="m 1.578125,-11.828125 h 3.4375 V 0 h -3.4375 z m 1.71875,-1.640625 c -1.4000105,0 -2.140625,-0.928231 -2.140625,-1.921875 0,-1.030972 0.7981382,-1.90625 2.140625,-1.90625 1.2412883,0 2.125,0.777343 2.125,1.84375 0,1.125462 -0.8402846,1.984375 -2.125,1.984375 z"
                 id="path18"
                 sodipodi:nodetypes="cccccsssss"
                 style="fill:#ffffff;fill-opacity:1" /></g></g></g><g
           fill="#ac0407"
           fill-opacity="1"
           id="g24"
           style="fill:#ffffff;fill-opacity:1"><g
             transform="translate(35.765115,21.104846)"
             id="g23"
             style="fill:#ffffff;fill-opacity:1"><g
               id="g22"
               style="fill:#ffffff;fill-opacity:1"><path
                 d="m 1.578125,-16.3125 h 3.4375 V 0 h -3.4375 z m 0,0"
                 id="path21"
                 style="fill:#ffffff;fill-opacity:1" /></g></g></g><g
           fill="#ac0407"
           fill-opacity="1"
           id="g27"
           style="fill:#ffffff;fill-opacity:1"><g
             transform="translate(42.377994,21.104846)"
             id="g26"
             style="fill:#ffffff;fill-opacity:1"><g
               id="g25"
               style="fill:#ffffff;fill-opacity:1"><path
                 d="m 1.578125,-16.3125 h 3.4375 V 0 h -3.4375 z m 0,0"
                 id="path24"
                 style="fill:#ffffff;fill-opacity:1" /></g></g></g><g
           fill="#526168"
           fill-opacity="1"
           id="g30"
           style="fill:#ffffff;fill-opacity:1"><g
             transform="translate(48.996583,21.104846)"
             id="g29"
             style="fill:#ffffff;fill-opacity:1"><g
               id="g28"
               style="fill:#ffffff;fill-opacity:1"><path
                 d="m 13.125,-8 c 1.345682,0.4325408 2.8125,1.5424705 2.8125,3.796875 C 15.9375,-0.63191664 12.332625,0 9.78125,0 H 1.828125 V -15.390625 H 9.34375 c 1.529711,0 5.828125,0.326807 5.828125,4 0,1.5636312 -0.82988,2.7415608 -2.046875,3.390625 z m -7.765625,-4.703125 v 3.625 H 8.90625 c 0.7444053,0 2.671875,-0.08104 2.671875,-1.828125 0,-1.464112 -1.399599,-1.796875 -2.671875,-1.796875 z M 9.515625,-2.6875 c 1.93466,0 2.84375,-0.6284195 2.84375,-1.890625 0,-1.269531 -0.949219,-1.90625 -2.84375,-1.90625 H 5.359375 V -2.6875 Z"
                 id="path27"
                 sodipodi:nodetypes="cssccsscccssscsssccs"
                 style="fill:#ffffff;fill-opacity:1" /></g></g></g><g
           fill="#526168"
           fill-opacity="1"
           id="g33"
           style="fill:#ffffff;fill-opacity:1"><g
             transform="translate(65.803404,21.104846)"
             id="g32"
             style="fill:#ffffff;fill-opacity:1"><g
               id="g31"
               style="fill:#ffffff;fill-opacity:1"><path
                 d="M 4.859375,-10.265625 C 5.9010742,-11.728012 7.7157621,-12 8.921875,-12 v 3.15625 C 7.5017463,-8.917714 5.015625,-8.929645 5.015625,-5.578125 V 0 h -3.4375 v -11.828125 h 3.28125 z"
                 id="path30"
                 sodipodi:nodetypes="cccsccccc"
                 style="fill:#ffffff;fill-opacity:1" /></g></g></g><g
           fill="#526168"
           fill-opacity="1"
           id="g36"
           style="fill:#ffffff;fill-opacity:1"><g
             transform="translate(75.184426,21.104846)"
             id="g35"
             style="fill:#ffffff;fill-opacity:1"><g
               id="g34"
               style="fill:#ffffff;fill-opacity:1"><path
                 d="m 1.578125,-11.828125 h 3.4375 V 0 h -3.4375 z m 1.71875,-1.640625 c -1.4000105,0 -2.140625,-0.928231 -2.140625,-1.921875 0,-1.030972 0.7981382,-1.90625 2.140625,-1.90625 1.2412883,0 2.125,0.777343 2.125,1.84375 0,1.125462 -0.8402846,1.984375 -2.125,1.984375 z"
                 id="path33"
                 sodipodi:nodetypes="cccccsssss"
                 style="fill:#ffffff;fill-opacity:1" /></g></g></g><g
           fill="#526168"
           fill-opacity="1"
           id="g39"
           transform="translate(15.281916)"
           style="fill:#ffffff;fill-opacity:1"><g
             transform="translate(81.797304,21.104846)"
             id="g38"
             style="fill:#ffffff;fill-opacity:1"><g
               id="g37"
               style="fill:#ffffff;fill-opacity:1"><path
                 d="m 13.78125,-11.828125 v 9.84375 c 0,3.9707316 -1.914102,6.421875 -6.640625,6.421875 -1.7673195,0 -4.2139317,-0.3806048 -5.796875,-1.625 L 2.703125,0.359375 C 3.7207331,1.1861816 5.3737727,1.6875 6.875,1.6875 c 1.7456763,0 3.484375,-0.5580699 3.484375,-3.21875 V -2.046875 C 8.57612,-0.10079953 5.4518585,-0.33632318 3.625,-1.28125 c -0.8877277,-0.4708809 -2.921875,-1.8787943 -2.921875,-5 0,-3.1538152 2.0424561,-4.541173 2.921875,-5 1.8717742,-0.984294 5.1466738,-1.234544 6.90625,0.96875 v -1.515625 z m -6.484375,8.4375 c 1.7547867,0 3.109375,-1.0920032 3.109375,-2.890625 0,-1.8063989 -1.380025,-2.90625 -3.109375,-2.90625 -1.6776169,0 -3.125,1.0393513 -3.125,2.90625 0,1.8618673 1.424991,2.890625 3.125,2.890625 z"
                 id="path36"
                 sodipodi:nodetypes="cssccssccsccccsssss"
                 style="fill:#ffffff;fill-opacity:1" /></g></g></g><g
           fill="#526168"
           fill-opacity="1"
           id="g42"
           transform="translate(-15.27848,0.11269006)"
           style="fill:#ffffff;fill-opacity:1"><g
             transform="translate(97.176109,21.104846)"
             id="g41"
             style="fill:#ffffff;fill-opacity:1"><g
               id="g40"
               style="fill:#ffffff;fill-opacity:1"><path
                 d="M 13.625,-16.3125 V 0 H 10.359375 V -1.359375 C 9.503906,-0.335938 8.269531,0.171875 6.65625,0.171875 3.0951704,0.171875 0.75,-2.3534509 0.75,-5.90625 0.75,-9.7039197 3.3426035,-12 6.65625,-12 c 1.507812,0 2.691406,0.476562 3.546875,1.421875 V -16.3125 Z M 7.25,-2.640625 c 1.6026035,0 3.015625,-1.1382221 3.015625,-3.265625 0,-2.1585238 -1.4241406,-3.28125 -3.015625,-3.28125 -1.6102281,0 -3.03125,1.1163992 -3.03125,3.28125 0,2.1330627 1.4091968,3.265625 3.03125,3.265625 z"
                 id="path39"
                 sodipodi:nodetypes="ccccssscccsssss"
                 style="fill:#ffffff;fill-opacity:1" /></g></g></g><g
           fill="#526168"
           fill-opacity="1"
           id="g45"
           style="fill:#ffffff;fill-opacity:1"><g
             transform="translate(112.37916,21.104846)"
             id="g44"
             style="fill:#ffffff;fill-opacity:1"><g
               id="g43"
               style="fill:#ffffff;fill-opacity:1"><path
                 d="m 13.171875,-5.875 c 0,0.054688 -0.02344,0.359375 -0.0625,0.921875 H 4.15625 c 0.3050808,1.4491328 1.5295086,2.375 3.390625,2.375 0.9941048,0 1.9872948,-0.2050316 2.96875,-1.140625 l 1.8125,1.984375 c -1.117187,1.273437 -2.742187,1.90625 -4.875,1.90625 -3.853373,0 -6.75,-2.32708 -6.75,-6.078125 0,-3.436327 2.5997765,-6.09375 6.3125,-6.09375 3.734921,0 6.15625,2.6401002 6.15625,6.125 z M 7.03125,-9.40625 c -1.5030239,0 -2.687769,0.8870323 -2.921875,2.453125 H 9.9375 C 9.6934412,-8.4906881 8.5063659,-9.40625 7.03125,-9.40625 Z"
                 id="path42"
                 sodipodi:nodetypes="sccsccsssssccs"
                 style="fill:#ffffff;fill-opacity:1" /></g></g></g></g></g><ellipse
       style="fill:#000000;fill-opacity:0;stroke:#ffffff;stroke-width:3.76666;stroke-dasharray:none;stroke-opacity:1"
       id="path47"
       cx="56.056557"
       cy="103.78116"
       rx="14.353788"
       ry="13.841151" /><ellipse
       style="fill:#000000;fill-opacity:0;stroke:#ffffff;stroke-width:3.76666;stroke-dasharray:none;stroke-opacity:1"
       id="path47-6"
       cx="158.70985"
       cy="103.85932"
       rx="14.353788"
       ry="13.841151" /></g></svg>
