<svg width="36" height="37" viewBox="0 0 36 37" fill="none" xmlns="http://www.w3.org/2000/svg">
<path d="M4.93684 28.2424C9.17193 23.3734 20.2547 16.5569 30.7053 28.2424M35 18.0265C35 27.4299 27.3888 35.053 18 35.053C8.61116 35.053 1 27.4299 1 18.0265C1 8.62301 8.61116 1 18 1C27.3888 1 35 8.62301 35 18.0265ZM25.3368 14.6212C25.3368 18.5805 22.1321 21.7902 18.1789 21.7902C14.2258 21.7902 11.0211 18.5805 11.0211 14.6212C11.0211 10.6618 14.2258 7.45214 18.1789 7.45214C22.1321 7.45214 25.3368 10.6618 25.3368 14.6212Z" stroke="white" stroke-width="2" stroke-linecap="round" stroke-linejoin="round"/>
</svg>
